  0
SECTION
  2
HEADER
  9
$ANGBASE
  50
0.0
  9
$ANGDIR
  70
1
  9
$MEASUREMENT
  70
1
  0
ENDSEC
  0
SECTION
  2
TABLES
  0
TABLE
  2
LTYPE
  70
4
  0
LTYPE
  5
40F
  2
CONTINUOUS
  70
0
  3
Solid line
  72
65
  73
0
  40
0.0
  0
LTYPE
  5
410
  2
DASHDOT
 70
0
  3
Dash Dot ____ _ ____ _
 72
65
 73
4
 40
2.0
 49
1.25
 49
-0.25
 49
0.25
 49
-0.25
  0
LTYPE
  5
411
  2
DASHED
 70
0
  3
Dashed __ __ __ __ __
 72
65
 73
2
 40
0.75
 49
0.5
 49
-0.25
  0
LTYPE
  5
43B
  2
DOTTED
 70
0
  3
Dotted .  .  .  .
 72
65
 73
2
 40
0.2
 49
0.0
 49
-0.2
  0
ENDTAB
  0
TABLE
  2
STYLE
  70
4
  0
STYLE
  2
KICAD
  70
0
  40
0
  41
1
  42
1
  50
0
  71
0
  3
isocp.shx
  0
STYLE
  2
KICADB
  70
0
  40
0
  41
1
  42
1
  50
0
  71
0
  3
isocp.shx
  0
STYLE
  2
KICADI
  70
0
  40
0
  41
1
  42
1
  50
15
  71
0
  3
isocp.shx
  0
STYLE
  2
KICADBI
  70
0
  40
0
  41
1
  42
1
  50
15
  71
0
  3
isocp.shx
  0
ENDTAB
  0
TABLE
  2
LAYER
  70
1
  0
LAYER
  2
BLACK
  70
0
  62
7
  6
CONTINUOUS
  0
ENDTAB
  0
ENDSEC
  0
SECTION
  2
ENTITIES
0
LINE
8
BLACK
6
CONTINUOUS
10
-38.
20
-68.5
11
-38.
21
-48.
0
LINE
8
BLACK
6
CONTINUOUS
10
-40.5
20
-68.5
11
-38.
21
-68.5
0
LINE
8
BLACK
6
CONTINUOUS
10
-38.
20
-71.5
11
-38.
21
-76.
0
LINE
8
BLACK
6
CONTINUOUS
10
-40.5
20
-71.5
11
-38.
21
-71.5
0
LINE
8
BLACK
6
CONTINUOUS
10
-40.5
20
-76.
11
-40.5
21
-71.5
0
LINE
8
BLACK
6
CONTINUOUS
10
-40.5
20
-64.
11
-40.5
21
-68.5
0
ARC
8
BLACK
10
-42.4999989999999954
20
-63.9999989999999954
40
1.9999990000002499
50
-0.00002865
51
90.00002865
0
ARC
8
BLACK
10
-57.5000009999999975
20
-76.0000009999999975
40
1.9999990000002499
50
-180.00002865
51
-89.99997135
0
LINE
8
BLACK
6
CONTINUOUS
10
-42.5
20
-62.
11
-57.5
21
-62.
0
LINE
8
BLACK
6
CONTINUOUS
10
-57.5
20
-78.
11
-42.5
21
-78.
0
LINE
8
BLACK
6
CONTINUOUS
10
-59.5
20
-64.
11
-59.5
21
-76.
0
ARC
8
BLACK
10
-57.5000009999999975
20
-63.9999989999999954
40
1.9999990000002499
50
-270.00002865
51
-179.99997135
0
ARC
8
BLACK
10
-42.4999989999999954
20
-76.0000009999999975
40
1.9999990000002499
50
-90.00002865
51
0.00002865
0
LINE
8
BLACK
6
CONTINUOUS
10
-84.
20
-58.
11
-78.
21
-58.
0
LINE
8
BLACK
6
CONTINUOUS
10
-93.
20
-58.
11
-87.
21
-58.
0
ARC
8
BLACK
10
-93.
20
-62.
40
2.
50
90.00000000
51
180.00000000
0
ARC
8
BLACK
10
-78.
20
-62.
40
2.
50
0.00000000
51
90.00000000
0
ARC
8
BLACK
10
-78.
20
-74.
40
2.
50
-90.00000000
51
-0.00000000
0
ARC
8
BLACK
10
-93.
20
-74.
40
2.
50
-180.00000000
51
-90.00000000
0
LINE
8
BLACK
6
CONTINUOUS
10
-95.
20
-62.
11
-95.
21
-74.
0
LINE
8
BLACK
6
CONTINUOUS
10
-87.
20
-60.
11
-93.
21
-60.
0
LINE
8
BLACK
6
CONTINUOUS
10
-87.
20
-58.
11
-87.
21
-60.
0
LINE
8
BLACK
6
CONTINUOUS
10
-84.
20
-60.
11
-84.
21
-58.
0
LINE
8
BLACK
6
CONTINUOUS
10
-78.
20
-60.
11
-84.
21
-60.
0
LINE
8
BLACK
6
CONTINUOUS
10
-76.
20
-74.
11
-76.
21
-62.
0
LINE
8
BLACK
6
CONTINUOUS
10
-93.
20
-76.
11
-78.
21
-76.
0
LINE
8
BLACK
6
CONTINUOUS
10
-6.
20
-5.
11
-2.
21
-5.
0
LINE
8
BLACK
6
CONTINUOUS
10
-38.
20
-6.
11
-21.
21
-6.
0
LINE
8
BLACK
6
CONTINUOUS
10
-8.
20
-8.
11
-8.
21
-7.
0
LINE
8
BLACK
6
CONTINUOUS
10
-10.
20
-8.
11
-8.
21
-8.
0
ARC
8
BLACK
10
-6.
20
-7.
40
2.
50
90.00000000
51
180.00000000
0
LINE
8
BLACK
6
CONTINUOUS
10
-19.
20
-8.
11
-10.
21
-8.
0
ARC
8
BLACK
10
-21.
20
-8.
40
2.
50
0.00000000
51
90.00000000
0
LINE
8
BLACK
6
CONTINUOUS
10
-38.
20
-2.
11
-38.
21
-6.
0
ARC
8
BLACK
10
-40.
20
-2.
40
2.
50
0.00000000
51
90.00000000
0
LINE
8
BLACK
6
CONTINUOUS
10
-55.
20
0.
11
-40.
21
0.
0
ARC
8
BLACK
10
0.925804
20
-64.9914199999999909
40
1.8608969854113364
50
-12.68323639
51
77.13892637
0
ARC
8
BLACK
10
-1.519849
20
-79.5000009999999975
40
1.7458178549900329
50
-103.24055374
51
-9.89473984
0
ARC
8
BLACK
10
-55.
20
-2.
40
2.
50
90.00000000
51
180.00000000
0
ARC
8
BLACK
10
-74.
20
-6.
40
2.
50
90.00000000
51
180.00000000
0
ARC
8
BLACK
10
-93.
20
-28.
40
2.
50
90.00000000
51
180.00000000
0
ARC
8
BLACK
10
-93.
20
-56.
40
2.
50
-180.00000000
51
-90.00000000
0
ARC
8
BLACK
10
-78.
20
-56.
40
2.
50
-90.00000000
51
-0.00000000
0
ARC
8
BLACK
10
-59.
20
-50.
40
2.
50
-90.00000000
51
-0.00000000
0
ARC
8
BLACK
10
-36.
20
-76.
40
2.
50
-180.00000000
51
-90.00000000
0
ARC
8
BLACK
10
-2.
20
-7.
40
2.
50
0.00000000
51
90.00000000
0
LINE
8
BLACK
6
CONTINUOUS
10
-19.8000000000000007
20
-78.
11
-1.9197109999999999
21
-81.1994100000000003
0
LINE
8
BLACK
6
CONTINUOUS
10
2.7412929999999998
20
-65.3999999999999915
11
0.2
21
-79.7999999999999972
0
LINE
8
BLACK
6
CONTINUOUS
10
0.
20
-63.
11
1.340017
21
-63.1772080000000003
0
LINE
8
BLACK
6
CONTINUOUS
10
0.
20
-7.
11
0.
21
-63.
0
LINE
8
BLACK
6
CONTINUOUS
10
-74.
20
-4.
11
-57.
21
-4.
0
LINE
8
BLACK
6
CONTINUOUS
10
-57.
20
-4.
11
-57.
21
-2.
0
LINE
8
BLACK
6
CONTINUOUS
10
-76.
20
-52.
11
-76.
21
-56.
0
LINE
8
BLACK
6
CONTINUOUS
10
-59.
20
-52.
11
-76.
21
-52.
0
LINE
8
BLACK
6
CONTINUOUS
10
-57.
20
-48.
11
-57.
21
-50.
0
LINE
8
BLACK
6
CONTINUOUS
10
-38.
20
-48.
11
-57.
21
-48.
0
LINE
8
BLACK
6
CONTINUOUS
10
-93.
20
-26.
11
-76.
21
-26.
0
LINE
8
BLACK
6
CONTINUOUS
10
-76.
20
-26.
11
-76.
21
-6.
0
LINE
8
BLACK
6
CONTINUOUS
10
-19.8000000000000007
20
-78.
11
-36.
21
-78.
0
LINE
8
BLACK
6
CONTINUOUS
10
-95.
20
-56.
11
-95.
21
-28.
0
LINE
8
BLACK
6
CONTINUOUS
10
-58.
20
-77.
11
-58.
21
-63.
0
LINE
8
BLACK
6
CONTINUOUS
10
-57.
20
-63.
11
-58.
21
-63.
0
LINE
8
BLACK
6
CONTINUOUS
10
-57.
20
-77.
11
-58.
21
-77.
0
LINE
8
BLACK
6
CONTINUOUS
10
-43.
20
-63.
11
-42.
21
-63.
0
LINE
8
BLACK
6
CONTINUOUS
10
-43.
20
-77.
11
-42.
21
-77.
0
LINE
8
BLACK
6
CONTINUOUS
10
-42.
20
-63.
11
-42.
21
-77.
0
LINE
8
BLACK
6
CONTINUOUS
10
-57.
20
-63.
11
-43.
21
-63.
0
LINE
8
BLACK
6
CONTINUOUS
10
-43.
20
-63.
11
-43.
21
-77.
0
LINE
8
BLACK
6
CONTINUOUS
10
-43.
20
-77.
11
-57.
21
-77.
0
LINE
8
BLACK
6
CONTINUOUS
10
-57.
20
-77.
11
-57.
21
-63.
0
LINE
8
BLACK
6
CONTINUOUS
10
-93.5
20
-75.
11
-93.5
21
-61.
0
LINE
8
BLACK
6
CONTINUOUS
10
-92.5
20
-61.
11
-93.5
21
-61.
0
LINE
8
BLACK
6
CONTINUOUS
10
-92.5
20
-75.
11
-93.5
21
-75.
0
LINE
8
BLACK
6
CONTINUOUS
10
-78.5
20
-61.
11
-77.5
21
-61.
0
LINE
8
BLACK
6
CONTINUOUS
10
-78.5
20
-75.
11
-77.5
21
-75.
0
LINE
8
BLACK
6
CONTINUOUS
10
-77.5
20
-61.
11
-77.5
21
-75.
0
LINE
8
BLACK
6
CONTINUOUS
10
-92.5
20
-61.
11
-78.5
21
-61.
0
LINE
8
BLACK
6
CONTINUOUS
10
-78.5
20
-61.
11
-78.5
21
-75.
0
LINE
8
BLACK
6
CONTINUOUS
10
-78.5
20
-75.
11
-92.5
21
-75.
0
LINE
8
BLACK
6
CONTINUOUS
10
-92.5
20
-75.
11
-92.5
21
-61.
0
LINE
8
BLACK
6
CONTINUOUS
10
-17.0939990000000002
20
-77.5044690000000003
11
-14.6629249999999995
21
-63.7171599999999998
0
LINE
8
BLACK
6
CONTINUOUS
10
-13.6781169999999985
20
-63.8908079999999998
11
-14.6629249999999995
21
-63.7171599999999998
0
LINE
8
BLACK
6
CONTINUOUS
10
-16.1091920000000002
20
-77.6781170000000003
11
-17.0939990000000002
21
-77.5044690000000003
0
LINE
8
BLACK
6
CONTINUOUS
10
0.109192
20
-66.3218829999999997
11
1.0939989999999999
21
-66.4955309999999997
0
LINE
8
BLACK
6
CONTINUOUS
10
-2.3218829999999997
20
-80.1091919999999931
11
-1.337075
21
-80.2828399999999931
0
LINE
8
BLACK
6
CONTINUOUS
10
1.0939989999999999
20
-66.4955309999999997
11
-1.337075
21
-80.2828399999999931
0
LINE
8
BLACK
6
CONTINUOUS
10
0.109192
20
-66.3218829999999997
11
-2.3218829999999997
21
-80.1091919999999931
0
LINE
8
BLACK
6
CONTINUOUS
10
-2.3218829999999997
20
-80.1091919999999931
11
-16.1091920000000002
21
-77.6781170000000003
0
LINE
8
BLACK
6
CONTINUOUS
10
-16.1091920000000002
20
-77.6781170000000003
11
-13.6781169999999985
21
-63.8908079999999998
0
LINE
8
BLACK
6
CONTINUOUS
10
-13.6781169999999985
20
-63.8908079999999998
11
0.109192
21
-66.3218829999999997
0
LINE
8
BLACK
6
CONTINUOUS
10
-36.5
20
-77.
11
-36.5
21
-63.
0
LINE
8
BLACK
6
CONTINUOUS
10
-35.5
20
-63.
11
-36.5
21
-63.
0
LINE
8
BLACK
6
CONTINUOUS
10
-35.5
20
-77.
11
-36.5
21
-77.
0
LINE
8
BLACK
6
CONTINUOUS
10
-21.5
20
-63.
11
-20.5
21
-63.
0
LINE
8
BLACK
6
CONTINUOUS
10
-21.5
20
-77.
11
-20.5
21
-77.
0
LINE
8
BLACK
6
CONTINUOUS
10
-20.5
20
-63.
11
-20.5
21
-77.
0
LINE
8
BLACK
6
CONTINUOUS
10
-35.5
20
-63.
11
-21.5
21
-63.
0
LINE
8
BLACK
6
CONTINUOUS
10
-21.5
20
-63.
11
-21.5
21
-77.
0
LINE
8
BLACK
6
CONTINUOUS
10
-21.5
20
-77.
11
-35.5
21
-77.
0
LINE
8
BLACK
6
CONTINUOUS
10
-35.5
20
-77.
11
-35.5
21
-63.
0
LINE
8
BLACK
6
CONTINUOUS
10
-17.5
20
-55.
11
-17.5
21
-41.
0
LINE
8
BLACK
6
CONTINUOUS
10
-16.5
20
-41.
11
-17.5
21
-41.
0
LINE
8
BLACK
6
CONTINUOUS
10
-16.5
20
-55.
11
-17.5
21
-55.
0
LINE
8
BLACK
6
CONTINUOUS
10
-2.5
20
-41.
11
-1.5
21
-41.
0
LINE
8
BLACK
6
CONTINUOUS
10
-2.5
20
-55.
11
-1.5
21
-55.
0
LINE
8
BLACK
6
CONTINUOUS
10
-1.5
20
-41.
11
-1.5
21
-55.
0
LINE
8
BLACK
6
CONTINUOUS
10
-16.5
20
-41.
11
-2.5
21
-41.
0
LINE
8
BLACK
6
CONTINUOUS
10
-2.5
20
-41.
11
-2.5
21
-55.
0
LINE
8
BLACK
6
CONTINUOUS
10
-2.5
20
-55.
11
-16.5
21
-55.
0
LINE
8
BLACK
6
CONTINUOUS
10
-16.5
20
-55.
11
-16.5
21
-41.
0
LINE
8
BLACK
6
CONTINUOUS
10
-36.5
20
-53.
11
-36.5
21
-39.
0
LINE
8
BLACK
6
CONTINUOUS
10
-35.5
20
-39.
11
-36.5
21
-39.
0
LINE
8
BLACK
6
CONTINUOUS
10
-35.5
20
-53.
11
-36.5
21
-53.
0
LINE
8
BLACK
6
CONTINUOUS
10
-21.5
20
-39.
11
-20.5
21
-39.
0
LINE
8
BLACK
6
CONTINUOUS
10
-21.5
20
-53.
11
-20.5
21
-53.
0
LINE
8
BLACK
6
CONTINUOUS
10
-20.5
20
-39.
11
-20.5
21
-53.
0
LINE
8
BLACK
6
CONTINUOUS
10
-35.5
20
-39.
11
-21.5
21
-39.
0
LINE
8
BLACK
6
CONTINUOUS
10
-21.5
20
-39.
11
-21.5
21
-53.
0
LINE
8
BLACK
6
CONTINUOUS
10
-21.5
20
-53.
11
-35.5
21
-53.
0
LINE
8
BLACK
6
CONTINUOUS
10
-35.5
20
-53.
11
-35.5
21
-39.
0
LINE
8
BLACK
6
CONTINUOUS
10
-55.5
20
-47.
11
-55.5
21
-33.
0
LINE
8
BLACK
6
CONTINUOUS
10
-54.5
20
-33.
11
-55.5
21
-33.
0
LINE
8
BLACK
6
CONTINUOUS
10
-54.5
20
-47.
11
-55.5
21
-47.
0
LINE
8
BLACK
6
CONTINUOUS
10
-40.5
20
-33.
11
-39.5
21
-33.
0
LINE
8
BLACK
6
CONTINUOUS
10
-40.5
20
-47.
11
-39.5
21
-47.
0
LINE
8
BLACK
6
CONTINUOUS
10
-39.5
20
-33.
11
-39.5
21
-47.
0
LINE
8
BLACK
6
CONTINUOUS
10
-54.5
20
-33.
11
-40.5
21
-33.
0
LINE
8
BLACK
6
CONTINUOUS
10
-40.5
20
-33.
11
-40.5
21
-47.
0
LINE
8
BLACK
6
CONTINUOUS
10
-40.5
20
-47.
11
-54.5
21
-47.
0
LINE
8
BLACK
6
CONTINUOUS
10
-54.5
20
-47.
11
-54.5
21
-33.
0
LINE
8
BLACK
6
CONTINUOUS
10
-74.5
20
-51.
11
-74.5
21
-37.
0
LINE
8
BLACK
6
CONTINUOUS
10
-73.5
20
-37.
11
-74.5
21
-37.
0
LINE
8
BLACK
6
CONTINUOUS
10
-73.5
20
-51.
11
-74.5
21
-51.
0
LINE
8
BLACK
6
CONTINUOUS
10
-59.5
20
-37.
11
-58.5
21
-37.
0
LINE
8
BLACK
6
CONTINUOUS
10
-59.5
20
-51.
11
-58.5
21
-51.
0
LINE
8
BLACK
6
CONTINUOUS
10
-58.5
20
-37.
11
-58.5
21
-51.
0
LINE
8
BLACK
6
CONTINUOUS
10
-73.5
20
-37.
11
-59.5
21
-37.
0
LINE
8
BLACK
6
CONTINUOUS
10
-59.5
20
-37.
11
-59.5
21
-51.
0
LINE
8
BLACK
6
CONTINUOUS
10
-59.5
20
-51.
11
-73.5
21
-51.
0
LINE
8
BLACK
6
CONTINUOUS
10
-73.5
20
-51.
11
-73.5
21
-37.
0
LINE
8
BLACK
6
CONTINUOUS
10
-93.5
20
-57.
11
-93.5
21
-43.
0
LINE
8
BLACK
6
CONTINUOUS
10
-92.5
20
-43.
11
-93.5
21
-43.
0
LINE
8
BLACK
6
CONTINUOUS
10
-92.5
20
-57.
11
-93.5
21
-57.
0
LINE
8
BLACK
6
CONTINUOUS
10
-78.5
20
-43.
11
-77.5
21
-43.
0
LINE
8
BLACK
6
CONTINUOUS
10
-78.5
20
-57.
11
-77.5
21
-57.
0
LINE
8
BLACK
6
CONTINUOUS
10
-77.5
20
-43.
11
-77.5
21
-57.
0
LINE
8
BLACK
6
CONTINUOUS
10
-92.5
20
-43.
11
-78.5
21
-43.
0
LINE
8
BLACK
6
CONTINUOUS
10
-78.5
20
-43.
11
-78.5
21
-57.
0
LINE
8
BLACK
6
CONTINUOUS
10
-78.5
20
-57.
11
-92.5
21
-57.
0
LINE
8
BLACK
6
CONTINUOUS
10
-92.5
20
-57.
11
-92.5
21
-43.
0
LINE
8
BLACK
6
CONTINUOUS
10
-17.5
20
-39.
11
-17.5
21
-25.
0
LINE
8
BLACK
6
CONTINUOUS
10
-16.5
20
-25.
11
-17.5
21
-25.
0
LINE
8
BLACK
6
CONTINUOUS
10
-16.5
20
-39.
11
-17.5
21
-39.
0
LINE
8
BLACK
6
CONTINUOUS
10
-2.5
20
-25.
11
-1.5
21
-25.
0
LINE
8
BLACK
6
CONTINUOUS
10
-2.5
20
-39.
11
-1.5
21
-39.
0
LINE
8
BLACK
6
CONTINUOUS
10
-1.5
20
-25.
11
-1.5
21
-39.
0
LINE
8
BLACK
6
CONTINUOUS
10
-16.5
20
-25.
11
-2.5
21
-25.
0
LINE
8
BLACK
6
CONTINUOUS
10
-2.5
20
-25.
11
-2.5
21
-39.
0
LINE
8
BLACK
6
CONTINUOUS
10
-2.5
20
-39.
11
-16.5
21
-39.
0
LINE
8
BLACK
6
CONTINUOUS
10
-16.5
20
-39.
11
-16.5
21
-25.
0
LINE
8
BLACK
6
CONTINUOUS
10
-36.5
20
-37.
11
-36.5
21
-23.
0
LINE
8
BLACK
6
CONTINUOUS
10
-35.5
20
-23.
11
-36.5
21
-23.
0
LINE
8
BLACK
6
CONTINUOUS
10
-35.5
20
-37.
11
-36.5
21
-37.
0
LINE
8
BLACK
6
CONTINUOUS
10
-21.5
20
-23.
11
-20.5
21
-23.
0
LINE
8
BLACK
6
CONTINUOUS
10
-21.5
20
-37.
11
-20.5
21
-37.
0
LINE
8
BLACK
6
CONTINUOUS
10
-20.5
20
-23.
11
-20.5
21
-37.
0
LINE
8
BLACK
6
CONTINUOUS
10
-35.5
20
-23.
11
-21.5
21
-23.
0
LINE
8
BLACK
6
CONTINUOUS
10
-21.5
20
-23.
11
-21.5
21
-37.
0
LINE
8
BLACK
6
CONTINUOUS
10
-21.5
20
-37.
11
-35.5
21
-37.
0
LINE
8
BLACK
6
CONTINUOUS
10
-35.5
20
-37.
11
-35.5
21
-23.
0
LINE
8
BLACK
6
CONTINUOUS
10
-55.5
20
-31.
11
-55.5
21
-17.
0
LINE
8
BLACK
6
CONTINUOUS
10
-54.5
20
-17.
11
-55.5
21
-17.
0
LINE
8
BLACK
6
CONTINUOUS
10
-54.5
20
-31.
11
-55.5
21
-31.
0
LINE
8
BLACK
6
CONTINUOUS
10
-40.5
20
-17.
11
-39.5
21
-17.
0
LINE
8
BLACK
6
CONTINUOUS
10
-40.5
20
-31.
11
-39.5
21
-31.
0
LINE
8
BLACK
6
CONTINUOUS
10
-39.5
20
-17.
11
-39.5
21
-31.
0
LINE
8
BLACK
6
CONTINUOUS
10
-54.5
20
-17.
11
-40.5
21
-17.
0
LINE
8
BLACK
6
CONTINUOUS
10
-40.5
20
-17.
11
-40.5
21
-31.
0
LINE
8
BLACK
6
CONTINUOUS
10
-40.5
20
-31.
11
-54.5
21
-31.
0
LINE
8
BLACK
6
CONTINUOUS
10
-54.5
20
-31.
11
-54.5
21
-17.
0
LINE
8
BLACK
6
CONTINUOUS
10
-74.5
20
-35.
11
-74.5
21
-21.
0
LINE
8
BLACK
6
CONTINUOUS
10
-73.5
20
-21.
11
-74.5
21
-21.
0
LINE
8
BLACK
6
CONTINUOUS
10
-73.5
20
-35.
11
-74.5
21
-35.
0
LINE
8
BLACK
6
CONTINUOUS
10
-59.5
20
-21.
11
-58.5
21
-21.
0
LINE
8
BLACK
6
CONTINUOUS
10
-59.5
20
-35.
11
-58.5
21
-35.
0
LINE
8
BLACK
6
CONTINUOUS
10
-58.5
20
-21.
11
-58.5
21
-35.
0
LINE
8
BLACK
6
CONTINUOUS
10
-73.5
20
-21.
11
-59.5
21
-21.
0
LINE
8
BLACK
6
CONTINUOUS
10
-59.5
20
-21.
11
-59.5
21
-35.
0
LINE
8
BLACK
6
CONTINUOUS
10
-59.5
20
-35.
11
-73.5
21
-35.
0
LINE
8
BLACK
6
CONTINUOUS
10
-73.5
20
-35.
11
-73.5
21
-21.
0
LINE
8
BLACK
6
CONTINUOUS
10
-93.5
20
-41.
11
-93.5
21
-27.
0
LINE
8
BLACK
6
CONTINUOUS
10
-92.5
20
-27.
11
-93.5
21
-27.
0
LINE
8
BLACK
6
CONTINUOUS
10
-92.5
20
-41.
11
-93.5
21
-41.
0
LINE
8
BLACK
6
CONTINUOUS
10
-78.5
20
-27.
11
-77.5
21
-27.
0
LINE
8
BLACK
6
CONTINUOUS
10
-78.5
20
-41.
11
-77.5
21
-41.
0
LINE
8
BLACK
6
CONTINUOUS
10
-77.5
20
-27.
11
-77.5
21
-41.
0
LINE
8
BLACK
6
CONTINUOUS
10
-92.5
20
-27.
11
-78.5
21
-27.
0
LINE
8
BLACK
6
CONTINUOUS
10
-78.5
20
-27.
11
-78.5
21
-41.
0
LINE
8
BLACK
6
CONTINUOUS
10
-78.5
20
-41.
11
-92.5
21
-41.
0
LINE
8
BLACK
6
CONTINUOUS
10
-92.5
20
-41.
11
-92.5
21
-27.
0
LINE
8
BLACK
6
CONTINUOUS
10
-17.5
20
-23.
11
-17.5
21
-9.
0
LINE
8
BLACK
6
CONTINUOUS
10
-16.5
20
-9.
11
-17.5
21
-9.
0
LINE
8
BLACK
6
CONTINUOUS
10
-16.5
20
-23.
11
-17.5
21
-23.
0
LINE
8
BLACK
6
CONTINUOUS
10
-2.5
20
-9.
11
-1.5
21
-9.
0
LINE
8
BLACK
6
CONTINUOUS
10
-2.5
20
-23.
11
-1.5
21
-23.
0
LINE
8
BLACK
6
CONTINUOUS
10
-1.5
20
-9.
11
-1.5
21
-23.
0
LINE
8
BLACK
6
CONTINUOUS
10
-16.5
20
-9.
11
-2.5
21
-9.
0
LINE
8
BLACK
6
CONTINUOUS
10
-2.5
20
-9.
11
-2.5
21
-23.
0
LINE
8
BLACK
6
CONTINUOUS
10
-2.5
20
-23.
11
-16.5
21
-23.
0
LINE
8
BLACK
6
CONTINUOUS
10
-16.5
20
-23.
11
-16.5
21
-9.
0
LINE
8
BLACK
6
CONTINUOUS
10
-36.5
20
-21.
11
-36.5
21
-7.
0
LINE
8
BLACK
6
CONTINUOUS
10
-35.5
20
-7.
11
-36.5
21
-7.
0
LINE
8
BLACK
6
CONTINUOUS
10
-35.5
20
-21.
11
-36.5
21
-21.
0
LINE
8
BLACK
6
CONTINUOUS
10
-21.5
20
-7.
11
-20.5
21
-7.
0
LINE
8
BLACK
6
CONTINUOUS
10
-21.5
20
-21.
11
-20.5
21
-21.
0
LINE
8
BLACK
6
CONTINUOUS
10
-20.5
20
-7.
11
-20.5
21
-21.
0
LINE
8
BLACK
6
CONTINUOUS
10
-35.5
20
-7.
11
-21.5
21
-7.
0
LINE
8
BLACK
6
CONTINUOUS
10
-21.5
20
-7.
11
-21.5
21
-21.
0
LINE
8
BLACK
6
CONTINUOUS
10
-21.5
20
-21.
11
-35.5
21
-21.
0
LINE
8
BLACK
6
CONTINUOUS
10
-35.5
20
-21.
11
-35.5
21
-7.
0
LINE
8
BLACK
6
CONTINUOUS
10
-55.5
20
-15.
11
-55.5
21
-1.
0
LINE
8
BLACK
6
CONTINUOUS
10
-54.5
20
-1.
11
-55.5
21
-1.
0
LINE
8
BLACK
6
CONTINUOUS
10
-54.5
20
-15.
11
-55.5
21
-15.
0
LINE
8
BLACK
6
CONTINUOUS
10
-40.5
20
-1.
11
-39.5
21
-1.
0
LINE
8
BLACK
6
CONTINUOUS
10
-40.5
20
-15.
11
-39.5
21
-15.
0
LINE
8
BLACK
6
CONTINUOUS
10
-39.5
20
-1.
11
-39.5
21
-15.
0
LINE
8
BLACK
6
CONTINUOUS
10
-54.5
20
-1.
11
-40.5
21
-1.
0
LINE
8
BLACK
6
CONTINUOUS
10
-40.5
20
-1.
11
-40.5
21
-15.
0
LINE
8
BLACK
6
CONTINUOUS
10
-40.5
20
-15.
11
-54.5
21
-15.
0
LINE
8
BLACK
6
CONTINUOUS
10
-54.5
20
-15.
11
-54.5
21
-1.
0
LINE
8
BLACK
6
CONTINUOUS
10
-74.5
20
-19.
11
-74.5
21
-5.
0
LINE
8
BLACK
6
CONTINUOUS
10
-73.5
20
-5.
11
-74.5
21
-5.
0
LINE
8
BLACK
6
CONTINUOUS
10
-73.5
20
-19.
11
-74.5
21
-19.
0
LINE
8
BLACK
6
CONTINUOUS
10
-59.5
20
-5.
11
-58.5
21
-5.
0
LINE
8
BLACK
6
CONTINUOUS
10
-59.5
20
-19.
11
-58.5
21
-19.
0
LINE
8
BLACK
6
CONTINUOUS
10
-58.5
20
-5.
11
-58.5
21
-19.
0
LINE
8
BLACK
6
CONTINUOUS
10
-73.5
20
-5.
11
-59.5
21
-5.
0
LINE
8
BLACK
6
CONTINUOUS
10
-59.5
20
-5.
11
-59.5
21
-19.
0
LINE
8
BLACK
6
CONTINUOUS
10
-59.5
20
-19.
11
-73.5
21
-19.
0
LINE
8
BLACK
6
CONTINUOUS
10
-73.5
20
-19.
11
-73.5
21
-5.
  0
ENDSEC
  0
EOF
